<svg xmlns="http://www.w3.org/2000/svg" viewBox="0 0 950 950"><defs><style>.cls-1{fill:#999;}</style></defs><title>Asset 1</title><g id="Layer_2" data-name="Layer 2"><g id="Layer_1-2" data-name="Layer 1"><path d="M476.34,945c-1.42,0-4-.63-4.49-3L427.22,741.73c-1.42-6.37-7.29-10.81-14.28-10.81a13.92,13.92,0,0,0-11.07,5.22L274.07,899a3.75,3.75,0,0,1-3.11,1.43,5.44,5.44,0,0,1-4.12-1.85,2.38,2.38,0,0,1-.48-2.22l48.5-201.78a12.42,12.42,0,0,0-2.43-10.77,15,15,0,0,0-11.74-5.62,14.55,14.55,0,0,0-6.54,1.53L106.78,772.53a4.79,4.79,0,0,1-6.43-2,2.15,2.15,0,0,1,.38-2.52L235.25,603.9a12.17,12.17,0,0,0,1.61-13.22,14.62,14.62,0,0,0-13.28-8.13L10.75,586.38c-2.6,0-4.1-1.52-4.44-3-.28-1.28.28-2.23,1.73-2.91l195.3-91.73a12.64,12.64,0,0,0,7.51-11.54,13.43,13.43,0,0,0-8.2-12.08L7.35,376.5c-2.51-1.14-2.44-2.83-2.29-3.51s.75-2.38,3.73-2.38l215.46.64a13.67,13.67,0,0,0,12.67-7.66,12.53,12.53,0,0,0-1.9-13.45L98.26,186.27c-1.07-1.28-.85-2.16-.59-2.71a4,4,0,0,1,3.57-2,5.37,5.37,0,0,1,2.34.57l190.6,91.38a15.11,15.11,0,0,0,6.6,1.52A14.24,14.24,0,0,0,312,269.72a12.11,12.11,0,0,0,2.25-10.57L264,55a2.16,2.16,0,0,1,.34-2,4.83,4.83,0,0,1,7.21.28L400.67,214.85a14.71,14.71,0,0,0,11.6,5.49c6.66,0,12.23-4.21,13.54-10.24L470,7.37c.48-2.2,3-2.37,3.7-2.37,1.42,0,4,.63,4.48,3l44.64,200.29c1.42,6.37,7.29,10.81,14.28,10.81a13.92,13.92,0,0,0,11.07-5.22L675.93,51A3.74,3.74,0,0,1,679,49.61a5.46,5.46,0,0,1,4.12,1.85,2.38,2.38,0,0,1,.48,2.22l-48.5,201.78a12.39,12.39,0,0,0,2.43,10.77,15,15,0,0,0,11.74,5.62,14.55,14.55,0,0,0,6.54-1.53l187.37-92.85a4.81,4.81,0,0,1,2.16-.53,4.88,4.88,0,0,1,4.27,2.56,2.15,2.15,0,0,1-.38,2.52L714.75,346.1a12.19,12.19,0,0,0-1.62,13.22,14.64,14.64,0,0,0,13.29,8.13l212.82-3.83c2.61,0,4.11,1.52,4.44,3,.29,1.28-.27,2.23-1.72,2.91l-195.3,91.73a12.64,12.64,0,0,0-7.51,11.54,13.41,13.41,0,0,0,8.2,12.08l195.3,88.6c2.51,1.14,2.44,2.83,2.29,3.51s-.75,2.38-3.73,2.38l-215.46-.64a13.66,13.66,0,0,0-12.67,7.66,12.53,12.53,0,0,0,1.9,13.45L851.74,763.73a2.34,2.34,0,0,1,.59,2.71,4,4,0,0,1-3.57,2,5.37,5.37,0,0,1-2.34-.57l-190.6-91.38a15.11,15.11,0,0,0-6.6-1.52,14.24,14.24,0,0,0-11.17,5.27,12.11,12.11,0,0,0-2.25,10.57L686,895.05a2.16,2.16,0,0,1-.34,2,4.65,4.65,0,0,1-3.52,1.48,4.6,4.6,0,0,1-3.69-1.76L549.33,735.15a14.71,14.71,0,0,0-11.6-5.49c-6.66,0-12.23,4.21-13.55,10.24L480,942.63C479.56,944.83,477.08,945,476.34,945Z"/><path class="cls-1" d="M474,12.34l43.91,197c1.93,8.67,9.81,14.72,19.16,14.72a18.9,18.9,0,0,0,15-7.13L677.74,56.82,630.28,254.29a17.55,17.55,0,0,0,3.36,15,20.06,20.06,0,0,0,15.67,7.52,19.57,19.57,0,0,0,8.76-2.05l183-90.69L710.88,342.93a17.31,17.31,0,0,0-2.26,18.53,19.66,19.66,0,0,0,17.8,11h.38l205.1-3.7-187.36,88a17.61,17.61,0,0,0-10.39,16.11,18.35,18.35,0,0,0,11.14,16.59l187.16,84.91-206.69-.61h-.06a18.59,18.59,0,0,0-17.15,10.54,17.5,17.5,0,0,0,2.59,18.77L842.54,760.5,658,672a20.17,20.17,0,0,0-8.76-2,19.25,19.25,0,0,0-15.1,7.19A17.25,17.25,0,0,0,630.94,692l48.7,198.23L553.24,732a19.68,19.68,0,0,0-15.51-7.37c-9,0-16.61,5.83-18.43,14.18L476,937.66l-43.91-197c-1.94-8.67-9.81-14.72-19.16-14.72a18.9,18.9,0,0,0-15,7.13L272.26,893.18l47.46-197.47a17.55,17.55,0,0,0-3.36-15,20.06,20.06,0,0,0-15.67-7.52,19.57,19.57,0,0,0-8.76,2.05l-183,90.69L239.12,607.07a17.31,17.31,0,0,0,2.26-18.53,19.66,19.66,0,0,0-17.8-11h-.38l-205.1,3.7,187.36-88a17.61,17.61,0,0,0,10.39-16.11,18.35,18.35,0,0,0-11.14-16.59L17.55,375.64l206.68.61h.07a18.59,18.59,0,0,0,17.15-10.54,17.5,17.5,0,0,0-2.59-18.77L107.46,189.5,292,278a20.17,20.17,0,0,0,8.76,2,19.25,19.25,0,0,0,15.1-7.19A17.25,17.25,0,0,0,319.06,258L270.35,59.73,396.76,218a19.68,19.68,0,0,0,15.51,7.37c9,0,16.61-5.83,18.43-14.18L474,12.34M473.66,0c-3.88,0-7.67,2.07-8.59,6.31L420.93,209c-.88,4.06-4.7,6.31-8.66,6.31a9.75,9.75,0,0,1-7.7-3.61L275.48,50.12a9.59,9.59,0,0,0-7.6-3.64c-5.2,0-10.1,4-8.7,9.66l50.16,204.21c1.31,5.32-3.22,9.64-8.56,9.64a10.36,10.36,0,0,1-4.44-1l-190.6-91.39a10.44,10.44,0,0,0-4.5-1.06c-6.75,0-11.69,7.12-6.82,12.95L231.18,353.35c4.52,5.42.52,12.9-6.88,12.9h0L8.82,365.61h0c-9.57,0-12.19,11.5-3.51,15.44l195.3,88.61c6.73,3,7.1,11.5.63,14.53L5.91,575.93c-8.38,3.93-4.68,15.45,4.84,15.45H11l212.41-3.83h.2c7.55,0,12.22,7.8,7.8,13.18L96.87,764.81c-4.75,5.8.85,13.25,7.75,13.25a9.74,9.74,0,0,0,4.38-1l187.37-92.85a9.65,9.65,0,0,1,4.32-1c5.57,0,10.63,4.73,9.31,10.22L261.5,895.15c-1.41,5.87,4,10.24,9.46,10.24a8.75,8.75,0,0,0,7-3.34L405.81,739.23a8.89,8.89,0,0,1,7.13-3.31c4.19,0,8.42,2.54,9.4,6.9L467,943.11c1,4.56,5.25,6.89,9.37,6.89,3.88,0,7.67-2.07,8.59-6.31L529.07,741c.88-4.06,4.7-6.31,8.66-6.31a9.75,9.75,0,0,1,7.7,3.61L674.52,899.88a9.58,9.58,0,0,0,7.59,3.64c5.2,0,10.11-4,8.71-9.66L640.65,689.65c-1.3-5.32,3.23-9.64,8.57-9.64a10.28,10.28,0,0,1,4.43,1l190.61,91.39a10.41,10.41,0,0,0,4.5,1.06c6.75,0,11.69-7.12,6.82-13L718.82,596.65c-4.52-5.42-.53-12.9,6.88-12.9h0l215.45.64h0c9.57,0,12.19-11.5,3.51-15.44l-195.3-88.61c-6.73-3-7.1-11.5-.63-14.53l195.3-91.74c8.38-3.93,4.68-15.45-4.85-15.45H939l-212.41,3.83h-.2c-7.55,0-12.22-7.8-7.81-13.18L853.13,185.18c4.75-5.79-.85-13.24-7.75-13.24A9.74,9.74,0,0,0,841,173L653.63,265.84a9.65,9.65,0,0,1-4.32,1c-5.57,0-10.63-4.73-9.31-10.22L688.5,54.85c1.41-5.87-4-10.24-9.46-10.24A8.75,8.75,0,0,0,672,48L544.19,210.77a8.89,8.89,0,0,1-7.13,3.31c-4.19,0-8.42-2.54-9.4-6.9L483,6.89C482,2.33,477.78,0,473.66,0Z"/></g></g></svg>