<svg xmlns="http://www.w3.org/2000/svg" viewBox="0 0 950 950"><title>featured-card</title><g id="Layer_2" data-name="Layer 2"><g id="Layer_1-2" data-name="Layer 1"><path d="M467,943.11,422.34,742.82c-1.6-7.15-12-9.41-16.53-3.59L278,902.05c-5.65,7.2-18.59,1.79-16.5-6.9L310,693.37c1.66-6.91-6.77-12.61-13.63-9.21L109,777c-8.5,4.22-17.87-5.2-12.13-12.19L231.38,600.73c4.46-5.43-.33-13.32-8-13.18L11,591.38c-9.68.17-13.5-11.49-5.06-15.45l195.3-91.74c6.47-3,6.1-11.48-.63-14.53L5.28,381.05c-8.69-3.94-6.05-15.47,3.54-15.44l215.44.64c7.43,0,11.45-7.47,6.92-12.9L94.42,189.47c-5.91-7.08,2.64-16.05,11.32-11.89L296.34,269c6.89,3.3,14.67-1.86,13-8.62L259.18,56.14c-2.14-8.71,10.44-13.35,16.3-6L404.57,211.73c4.73,5.92,14.85,4.25,16.36-2.7L465.07,6.31c1.9-8.73,16-8.27,17.95.58l44.64,200.29c1.6,7.15,12,9.41,16.53,3.59L672,48c5.65-7.2,18.59-1.79,16.5,6.9L640,256.63c-1.66,6.91,6.77,12.61,13.63,9.21L841,173c8.5-4.22,17.87,5.2,12.13,12.19L718.62,349.27c-4.46,5.43.33,13.32,8,13.18L939,358.62c9.68-.17,13.5,11.49,5.06,15.45l-195.3,91.74c-6.47,3-6.1,11.48.63,14.53L944.72,569c8.69,3.94,6,15.47-3.54,15.44l-215.44-.64c-7.43,0-11.45,7.47-6.92,12.9L855.58,760.53c5.91,7.08-2.64,16.05-11.32,11.89L653.66,681c-6.89-3.3-14.67,1.86-13,8.62l50.17,204.21c2.14,8.71-10.44,13.35-16.3,6L545.43,738.27c-4.73-5.92-14.85-4.25-16.36,2.7L484.93,943.69C483,952.42,469,952,467,943.11Z"/></g></g></svg>